<svg class="marks" width="512" height="479" viewBox="0 0 512 479" version="1.1" xmlns="http://www.w3.org/2000/svg" xmlns:xlink="http://www.w3.org/1999/xlink"><defs><linearGradient id="gradient_0" x1="0" x2="0" y1="1" y2="0"><stop offset="0" stop-color="rgb(239, 249, 189)"></stop><stop offset="0.05102040816326531" stop-color="rgb(229, 245, 184)"></stop><stop offset="0.10204081632653061" stop-color="rgb(218, 241, 180)"></stop><stop offset="0.15306122448979592" stop-color="rgb(203, 235, 181)"></stop><stop offset="0.20408163265306123" stop-color="rgb(187, 228, 181)"></stop><stop offset="0.25510204081632654" stop-color="rgb(166, 220, 183)"></stop><stop offset="0.30612244897959184" stop-color="rgb(145, 212, 185)"></stop><stop offset="0.35714285714285715" stop-color="rgb(123, 204, 188)"></stop><stop offset="0.40816326530612246" stop-color="rgb(102, 196, 190)"></stop><stop offset="0.45918367346938777" stop-color="rgb(84, 187, 192)"></stop><stop offset="0.5102040816326531" stop-color="rgb(66, 178, 194)"></stop><stop offset="0.5612244897959184" stop-color="rgb(54, 167, 193)"></stop><stop offset="0.6122448979591837" stop-color="rgb(43, 155, 191)"></stop><stop offset="0.663265306122449" stop-color="rgb(37, 140, 187)"></stop><stop offset="0.7142857142857143" stop-color="rgb(33, 126, 182)"></stop><stop offset="0.7653061224489796" stop-color="rgb(33, 110, 175)"></stop><stop offset="0.8163265306122449" stop-color="rgb(33, 94, 168)"></stop><stop offset="0.8673469387755102" stop-color="rgb(34, 80, 161)"></stop><stop offset="0.9183673469387755" stop-color="rgb(34, 67, 152)"></stop><stop offset="0.9693877551020408" stop-color="rgb(30, 56, 140)"></stop><stop offset="1" stop-color="rgb(28, 49, 133)"></stop></linearGradient></defs><g transform="translate(57,22)"><g class="mark-group role-frame root"><g transform="translate(0,0)"><path class="background" d="M0.5,0.5h400v400h-400Z" style="fill: none; stroke: #ddd;"></path><g><g class="mark-rect role-mark layer_0_marks"><path d="M0,0h50v50h-50Z" style="fill: rgb(34, 92, 166);"></path><path d="M0,50h50v50h-50Z" style="fill: rgb(43, 155, 191);"></path><path d="M0,100h50v50h-50Z" style="fill: rgb(29, 51, 135);"></path><path d="M0,150h50v50h-50Z" style="fill: rgb(150, 214, 185);"></path><path d="M0,200h50v50h-50Z" style="fill: rgb(183, 227, 182);"></path><path d="M0,250h50v50h-50Z" style="fill: rgb(36, 137, 186);"></path><path d="M0,300h50v50h-50Z" style="fill: rgb(46, 160, 192);"></path><path d="M0,350h50v50h-50Z" style="fill: rgb(35, 72, 156);"></path><path d="M50,0h50v50h-50Z" style="fill: white;"></path><path d="M50,50h50v50h-50Z" style="fill: rgb(34, 86, 163);"></path><path d="M50,100h50v50h-50Z" style="fill: rgb(191, 230, 181);"></path><path d="M50,150h50v50h-50Z" style="fill: rgb(154, 215, 184);"></path><path d="M50,200h50v50h-50Z" style="fill: rgb(194, 231, 181);"></path><path d="M50,250h50v50h-50Z" style="fill: rgb(218, 241, 180);"></path><path d="M50,300h50v50h-50Z" style="fill: rgb(64, 176, 194);"></path><path d="M50,350h50v50h-50Z" style="fill: rgb(28, 49, 133);"></path><path d="M100,0h50v50h-50Z" style="fill: white;"></path><path d="M100,50h50v50h-50Z" style="fill: white;"></path><path d="M100,100h50v50h-50Z" style="fill: rgb(166, 220, 183);"></path><path d="M100,150h50v50h-50Z" style="fill: rgb(32, 62, 147);"></path><path d="M100,200h50v50h-50Z" style="fill: rgb(34, 67, 152);"></path><path d="M100,250h50v50h-50Z" style="fill: rgb(30, 56, 140);"></path><path d="M100,300h50v50h-50Z" style="fill: rgb(166, 220, 183);"></path><path d="M100,350h50v50h-50Z" style="fill: rgb(162, 219, 184);"></path><path d="M150,0h50v50h-50Z" style="fill: white;"></path><path d="M150,50h50v50h-50Z" style="fill: white;"></path><path d="M150,100h50v50h-50Z" style="fill: white;"></path><path d="M150,150h50v50h-50Z" style="fill: rgb(158, 217, 184);"></path><path d="M150,200h50v50h-50Z" style="fill: rgb(33, 100, 171);"></path><path d="M150,250h50v50h-50Z" style="fill: rgb(33, 113, 176);"></path><path d="M150,300h50v50h-50Z" style="fill: rgb(98, 194, 191);"></path><path d="M150,350h50v50h-50Z" style="fill: rgb(73, 182, 194);"></path><path d="M200,0h50v50h-50Z" style="fill: white;"></path><path d="M200,50h50v50h-50Z" style="fill: white;"></path><path d="M200,100h50v50h-50Z" style="fill: white;"></path><path d="M200,150h50v50h-50Z" style="fill: white;"></path><path d="M200,200h50v50h-50Z" style="fill: rgb(179, 225, 182);"></path><path d="M200,250h50v50h-50Z" style="fill: rgb(35, 77, 159);"></path><path d="M200,300h50v50h-50Z" style="fill: rgb(34, 86, 163);"></path><path d="M200,350h50v50h-50Z" style="fill: rgb(46, 160, 192);"></path><path d="M250,0h50v50h-50Z" style="fill: white;"></path><path d="M250,50h50v50h-50Z" style="fill: white;"></path><path d="M250,100h50v50h-50Z" style="fill: white;"></path><path d="M250,150h50v50h-50Z" style="fill: white;"></path><path d="M250,200h50v50h-50Z" style="fill: white;"></path><path d="M250,250h50v50h-50Z" style="fill: rgb(98, 194, 191);"></path><path d="M250,300h50v50h-50Z" style="fill: rgb(183, 227, 182);"></path><path d="M250,350h50v50h-50Z" style="fill: rgb(61, 173, 193);"></path><path d="M300,0h50v50h-50Z" style="fill: white;"></path><path d="M300,50h50v50h-50Z" style="fill: white;"></path><path d="M300,100h50v50h-50Z" style="fill: white;"></path><path d="M300,150h50v50h-50Z" style="fill: white;"></path><path d="M300,200h50v50h-50Z" style="fill: white;"></path><path d="M300,250h50v50h-50Z" style="fill: white;"></path><path d="M300,300h50v50h-50Z" style="fill: rgb(28, 49, 133);"></path><path d="M300,350h50v50h-50Z" style="fill: rgb(84, 187, 192);"></path><path d="M350,0h50v50h-50Z" style="fill: white;"></path><path d="M350,50h50v50h-50Z" style="fill: white;"></path><path d="M350,100h50v50h-50Z" style="fill: white;"></path><path d="M350,150h50v50h-50Z" style="fill: white;"></path><path d="M350,200h50v50h-50Z" style="fill: white;"></path><path d="M350,250h50v50h-50Z" style="fill: white;"></path><path d="M350,300h50v50h-50Z" style="fill: white;"></path><path d="M350,350h50v50h-50Z" style="fill: rgb(37, 140, 187);"></path></g><g class="mark-text role-mark layer_1_marks"><text text-anchor="middle" transform="translate(25,28)" style="font-family: sans-serif; font-size: 11px; fill: white;">0.81</text><text text-anchor="middle" transform="translate(25,78)" style="font-family: sans-serif; font-size: 11px; fill: white;">0.6</text><text text-anchor="middle" transform="translate(25,128)" style="font-family: sans-serif; font-size: 11px; fill: white;">0.97</text><text text-anchor="middle" transform="translate(25,178)" style="font-family: sans-serif; font-size: 11px; fill: black;">0.29</text><text text-anchor="middle" transform="translate(25,228)" style="font-family: sans-serif; font-size: 11px; fill: black;">0.21</text><text text-anchor="middle" transform="translate(25,278)" style="font-family: sans-serif; font-size: 11px; fill: white;">0.66</text><text text-anchor="middle" transform="translate(25,328)" style="font-family: sans-serif; font-size: 11px; fill: white;">0.58</text><text text-anchor="middle" transform="translate(25,378)" style="font-family: sans-serif; font-size: 11px; fill: white;">0.88</text><text text-anchor="middle" transform="translate(75,28)" style="font-family: sans-serif; font-size: 11px; fill: black;"></text><text text-anchor="middle" transform="translate(75,78)" style="font-family: sans-serif; font-size: 11px; fill: white;">0.83</text><text text-anchor="middle" transform="translate(75,128)" style="font-family: sans-serif; font-size: 11px; fill: black;">0.19</text><text text-anchor="middle" transform="translate(75,178)" style="font-family: sans-serif; font-size: 11px; fill: black;">0.28</text><text text-anchor="middle" transform="translate(75,228)" style="font-family: sans-serif; font-size: 11px; fill: black;">0.18</text><text text-anchor="middle" transform="translate(75,278)" style="font-family: sans-serif; font-size: 11px; fill: black;">0.1</text><text text-anchor="middle" transform="translate(75,328)" style="font-family: sans-serif; font-size: 11px; fill: white;">0.51</text><text text-anchor="middle" transform="translate(75,378)" style="font-family: sans-serif; font-size: 11px; fill: white;">0.98</text><text text-anchor="middle" transform="translate(125,28)" style="font-family: sans-serif; font-size: 11px; fill: black;"></text><text text-anchor="middle" transform="translate(125,78)" style="font-family: sans-serif; font-size: 11px; fill: black;"></text><text text-anchor="middle" transform="translate(125,128)" style="font-family: sans-serif; font-size: 11px; fill: black;">0.25</text><text text-anchor="middle" transform="translate(125,178)" style="font-family: sans-serif; font-size: 11px; fill: white;">0.92</text><text text-anchor="middle" transform="translate(125,228)" style="font-family: sans-serif; font-size: 11px; fill: white;">0.9</text><text text-anchor="middle" transform="translate(125,278)" style="font-family: sans-serif; font-size: 11px; fill: white;">0.95</text><text text-anchor="middle" transform="translate(125,328)" style="font-family: sans-serif; font-size: 11px; fill: black;">0.25</text><text text-anchor="middle" transform="translate(125,378)" style="font-family: sans-serif; font-size: 11px; fill: black;">0.26</text><text text-anchor="middle" transform="translate(175,28)" style="font-family: sans-serif; font-size: 11px; fill: black;"></text><text text-anchor="middle" transform="translate(175,78)" style="font-family: sans-serif; font-size: 11px; fill: black;"></text><text text-anchor="middle" transform="translate(175,128)" style="font-family: sans-serif; font-size: 11px; fill: black;"></text><text text-anchor="middle" transform="translate(175,178)" style="font-family: sans-serif; font-size: 11px; fill: black;">0.27</text><text text-anchor="middle" transform="translate(175,228)" style="font-family: sans-serif; font-size: 11px; fill: white;">0.78</text><text text-anchor="middle" transform="translate(175,278)" style="font-family: sans-serif; font-size: 11px; fill: white;">0.74</text><text text-anchor="middle" transform="translate(175,328)" style="font-family: sans-serif; font-size: 11px; fill: black;">0.41</text><text text-anchor="middle" transform="translate(175,378)" style="font-family: sans-serif; font-size: 11px; fill: black;">0.48</text><text text-anchor="middle" transform="translate(225,28)" style="font-family: sans-serif; font-size: 11px; fill: black;"></text><text text-anchor="middle" transform="translate(225,78)" style="font-family: sans-serif; font-size: 11px; fill: black;"></text><text text-anchor="middle" transform="translate(225,128)" style="font-family: sans-serif; font-size: 11px; fill: black;"></text><text text-anchor="middle" transform="translate(225,178)" style="font-family: sans-serif; font-size: 11px; fill: black;"></text><text text-anchor="middle" transform="translate(225,228)" style="font-family: sans-serif; font-size: 11px; fill: black;">0.22</text><text text-anchor="middle" transform="translate(225,278)" style="font-family: sans-serif; font-size: 11px; fill: white;">0.86</text><text text-anchor="middle" transform="translate(225,328)" style="font-family: sans-serif; font-size: 11px; fill: white;">0.83</text><text text-anchor="middle" transform="translate(225,378)" style="font-family: sans-serif; font-size: 11px; fill: white;">0.58</text><text text-anchor="middle" transform="translate(275,28)" style="font-family: sans-serif; font-size: 11px; fill: black;"></text><text text-anchor="middle" transform="translate(275,78)" style="font-family: sans-serif; font-size: 11px; fill: black;"></text><text text-anchor="middle" transform="translate(275,128)" style="font-family: sans-serif; font-size: 11px; fill: black;"></text><text text-anchor="middle" transform="translate(275,178)" style="font-family: sans-serif; font-size: 11px; fill: black;"></text><text text-anchor="middle" transform="translate(275,228)" style="font-family: sans-serif; font-size: 11px; fill: black;"></text><text text-anchor="middle" transform="translate(275,278)" style="font-family: sans-serif; font-size: 11px; fill: black;">0.41</text><text text-anchor="middle" transform="translate(275,328)" style="font-family: sans-serif; font-size: 11px; fill: black;">0.21</text><text text-anchor="middle" transform="translate(275,378)" style="font-family: sans-serif; font-size: 11px; fill: white;">0.52</text><text text-anchor="middle" transform="translate(325,28)" style="font-family: sans-serif; font-size: 11px; fill: black;"></text><text text-anchor="middle" transform="translate(325,78)" style="font-family: sans-serif; font-size: 11px; fill: black;"></text><text text-anchor="middle" transform="translate(325,128)" style="font-family: sans-serif; font-size: 11px; fill: black;"></text><text text-anchor="middle" transform="translate(325,178)" style="font-family: sans-serif; font-size: 11px; fill: black;"></text><text text-anchor="middle" transform="translate(325,228)" style="font-family: sans-serif; font-size: 11px; fill: black;"></text><text text-anchor="middle" transform="translate(325,278)" style="font-family: sans-serif; font-size: 11px; fill: black;"></text><text text-anchor="middle" transform="translate(325,328)" style="font-family: sans-serif; font-size: 11px; fill: white;">0.98</text><text text-anchor="middle" transform="translate(325,378)" style="font-family: sans-serif; font-size: 11px; fill: black;">0.45</text><text text-anchor="middle" transform="translate(375,28)" style="font-family: sans-serif; font-size: 11px; fill: black;"></text><text text-anchor="middle" transform="translate(375,78)" style="font-family: sans-serif; font-size: 11px; fill: black;"></text><text text-anchor="middle" transform="translate(375,128)" style="font-family: sans-serif; font-size: 11px; fill: black;"></text><text text-anchor="middle" transform="translate(375,178)" style="font-family: sans-serif; font-size: 11px; fill: black;"></text><text text-anchor="middle" transform="translate(375,228)" style="font-family: sans-serif; font-size: 11px; fill: black;"></text><text text-anchor="middle" transform="translate(375,278)" style="font-family: sans-serif; font-size: 11px; fill: black;"></text><text text-anchor="middle" transform="translate(375,328)" style="font-family: sans-serif; font-size: 11px; fill: black;"></text><text text-anchor="middle" transform="translate(375,378)" style="font-family: sans-serif; font-size: 11px; fill: white;">0.65</text></g><g class="mark-group role-legend"><g transform="translate(418,0)"><path class="background" d="M0,0h32v200h-32Z" style="pointer-events: none; fill: none;"></path><g><g class="mark-group role-legend-entry"><g transform="translate(0,0)"><path class="background" d="M0,0h0v0h0Z" style="pointer-events: none; fill: none;"></path><g><g class="mark-rect role-legend-gradient" style="pointer-events: none;"><path d="M0,0h16v200h-16Z" style="fill: url(#gradient_0); stroke: #ddd; stroke-width: 0; opacity: 1;"></path></g><g class="mark-text role-legend-label" style="pointer-events: none;"><text text-anchor="start" transform="translate(18,198)" style="font-family: sans-serif; font-size: 10px; fill: #000; opacity: 1;">0.0</text><text text-anchor="start" transform="translate(18,162.18367346938774)" style="font-family: sans-serif; font-size: 10px; fill: #000; opacity: 1;">0.2</text><text text-anchor="start" transform="translate(18,121.36734693877551)" style="font-family: sans-serif; font-size: 10px; fill: #000; opacity: 1;">0.4</text><text text-anchor="start" transform="translate(18,80.55102040816327)" style="font-family: sans-serif; font-size: 10px; fill: #000; opacity: 1;">0.6</text><text text-anchor="start" transform="translate(18,39.73469387755102)" style="font-family: sans-serif; font-size: 10px; fill: #000; opacity: 1;">0.8</text></g></g></g></g></g></g></g><g class="mark-group role-title"><g transform="translate(200,-17)"><path class="background" d="M0,0h0v0h0Z" style="pointer-events: none; fill: none;"></path><g><g class="mark-text role-title-text" style="pointer-events: none;"><text text-anchor="middle" transform="translate(0,10)" style="font-family: sans-serif; font-size: 13px; font-weight: bold; fill: #000; opacity: 1;">Correlation Plot</text></g></g></g></g><g class="mark-group role-axis"><g transform="translate(0.5,400.5)"><path class="background" d="M0,0h0v0h0Z" style="pointer-events: none; fill: none;"></path><g><g class="mark-rule role-axis-tick" style="pointer-events: none;"><line transform="translate(25,0)" x2="0" y2="5" style="fill: none; stroke: #888; stroke-width: 1; opacity: 1;"></line><line transform="translate(75,0)" x2="0" y2="5" style="fill: none; stroke: #888; stroke-width: 1; opacity: 1;"></line><line transform="translate(125,0)" x2="0" y2="5" style="fill: none; stroke: #888; stroke-width: 1; opacity: 1;"></line><line transform="translate(175,0)" x2="0" y2="5" style="fill: none; stroke: #888; stroke-width: 1; opacity: 1;"></line><line transform="translate(225,0)" x2="0" y2="5" style="fill: none; stroke: #888; stroke-width: 1; opacity: 1;"></line><line transform="translate(275,0)" x2="0" y2="5" style="fill: none; stroke: #888; stroke-width: 1; opacity: 1;"></line><line transform="translate(325,0)" x2="0" y2="5" style="fill: none; stroke: #888; stroke-width: 1; opacity: 1;"></line><line transform="translate(375,0)" x2="0" y2="5" style="fill: none; stroke: #888; stroke-width: 1; opacity: 1;"></line></g><g class="mark-text role-axis-label" style="pointer-events: none;"><text text-anchor="end" transform="translate(24.5,7) rotate(270) translate(0,3)" style="font-family: sans-serif; font-size: 10px; fill: #000; opacity: 1;">edbafbbc</text><text text-anchor="end" transform="translate(74.5,7) rotate(270) translate(0,3)" style="font-family: sans-serif; font-size: 10px; fill: #000; opacity: 1;">afebcfba</text><text text-anchor="end" transform="translate(124.5,7) rotate(270) translate(0,3)" style="font-family: sans-serif; font-size: 10px; fill: #000; opacity: 1;">dbddeebb</text><text text-anchor="end" transform="translate(174.5,7) rotate(270) translate(0,3)" style="font-family: sans-serif; font-size: 10px; fill: #000; opacity: 1;">fbaebeec</text><text text-anchor="end" transform="translate(224.5,7) rotate(270) translate(0,3)" style="font-family: sans-serif; font-size: 10px; fill: #000; opacity: 1;">eabdbdcb</text><text text-anchor="end" transform="translate(274.5,7) rotate(270) translate(0,3)" style="font-family: sans-serif; font-size: 10px; fill: #000; opacity: 1;">ccbbcdba</text><text text-anchor="end" transform="translate(324.5,7) rotate(270) translate(0,3)" style="font-family: sans-serif; font-size: 10px; fill: #000; opacity: 1;">cebecced</text><text text-anchor="end" transform="translate(374.5,7) rotate(270) translate(0,3)" style="font-family: sans-serif; font-size: 10px; fill: #000; opacity: 1;">ababeeae</text></g><g class="mark-rule role-axis-domain" style="pointer-events: none;"><line transform="translate(0,0)" x2="400" y2="0" style="fill: none; stroke: #888; stroke-width: 1; opacity: 1;"></line></g></g></g></g><g class="mark-group role-axis"><g transform="translate(0.5,0.5)"><path class="background" d="M0,0h0v0h0Z" style="pointer-events: none; fill: none;"></path><g><g class="mark-rule role-axis-tick" style="pointer-events: none;"><line transform="translate(0,25)" x2="-5" y2="0" style="fill: none; stroke: #888; stroke-width: 1; opacity: 1;"></line><line transform="translate(0,75)" x2="-5" y2="0" style="fill: none; stroke: #888; stroke-width: 1; opacity: 1;"></line><line transform="translate(0,125)" x2="-5" y2="0" style="fill: none; stroke: #888; stroke-width: 1; opacity: 1;"></line><line transform="translate(0,175)" x2="-5" y2="0" style="fill: none; stroke: #888; stroke-width: 1; opacity: 1;"></line><line transform="translate(0,225)" x2="-5" y2="0" style="fill: none; stroke: #888; stroke-width: 1; opacity: 1;"></line><line transform="translate(0,275)" x2="-5" y2="0" style="fill: none; stroke: #888; stroke-width: 1; opacity: 1;"></line><line transform="translate(0,325)" x2="-5" y2="0" style="fill: none; stroke: #888; stroke-width: 1; opacity: 1;"></line><line transform="translate(0,375)" x2="-5" y2="0" style="fill: none; stroke: #888; stroke-width: 1; opacity: 1;"></line></g><g class="mark-text role-axis-label" style="pointer-events: none;"><text text-anchor="end" transform="translate(-7,27.5)" style="font-family: sans-serif; font-size: 10px; fill: #000; opacity: 1;">edbafbbc</text><text text-anchor="end" transform="translate(-7,77.5)" style="font-family: sans-serif; font-size: 10px; fill: #000; opacity: 1;">afebcfba</text><text text-anchor="end" transform="translate(-7,127.5)" style="font-family: sans-serif; font-size: 10px; fill: #000; opacity: 1;">dbddeebb</text><text text-anchor="end" transform="translate(-7,177.5)" style="font-family: sans-serif; font-size: 10px; fill: #000; opacity: 1;">fbaebeec</text><text text-anchor="end" transform="translate(-7,227.5)" style="font-family: sans-serif; font-size: 10px; fill: #000; opacity: 1;">eabdbdcb</text><text text-anchor="end" transform="translate(-7,277.5)" style="font-family: sans-serif; font-size: 10px; fill: #000; opacity: 1;">ccbbcdba</text><text text-anchor="end" transform="translate(-7,327.5)" style="font-family: sans-serif; font-size: 10px; fill: #000; opacity: 1;">cebecced</text><text text-anchor="end" transform="translate(-7,377.5)" style="font-family: sans-serif; font-size: 10px; fill: #000; opacity: 1;">ababeeae</text></g><g class="mark-rule role-axis-domain" style="pointer-events: none;"><line transform="translate(0,0)" x2="0" y2="400" style="fill: none; stroke: #888; stroke-width: 1; opacity: 1;"></line></g></g></g></g></g></g></g></g></svg>